<svg width="32" height="32" viewBox="0 0 32 32" fill="none" xmlns="http://www.w3.org/2000/svg">
<path 
  fill-rule="evenodd" 
  clip-rule="evenodd" 
  d="M16 4.71797C9.76852 4.71797 4.71797 9.76852 4.71797 16C4.71797 22.2315 9.76852 27.2821 16 27.2821C22.2315 27.2821 27.2821 22.2315 27.2821 16C27.2821 9.76852 22.2315 4.71797 16 4.71797ZM16 29.3334C8.63563 29.3334 2.66669 23.3644 2.66669 16C2.66669 8.63563 8.63563 2.66669 16 2.66669C23.3644 2.66669 29.3334 8.63563 29.3334 16C29.3334 23.3644 23.3644 29.3334 16 29.3334Z" 
  fill="#FFB539"
/>
<path 
  fill-rule="evenodd" 
  clip-rule="evenodd" 
  d="M16 8.8205C16.5665 8.8205 17.0256 9.27969 17.0256 9.84614V16.6837C17.0256 17.2502 16.5665 17.7094 16 17.7094C15.4336 17.7094 14.9744 17.2502 14.9744 16.6837V9.84614C14.9744 9.27969 15.4336 8.8205 16 8.8205Z" 
  fill="#FFB539"
/>
<path 
  fill-rule="evenodd" 
  clip-rule="evenodd" 
  d="M14.6325 21.8157C14.629 21.055 15.2462 20.4445 15.9987 20.4445C16.7525 20.4445 17.3676 21.0541 17.3676 21.812C17.3676 22.5671 16.7552 23.1795 16 23.1795C15.2461 23.1795 14.6345 22.5692 14.6325 21.8157Z"  
  fill="#FFB539"
/>
</svg>

