<svg width="32" height="32" viewBox="0 0 32 32" fill="none" xmlns="http://www.w3.org/2000/svg">
<path 
  fill-rule="evenodd" 
  clip-rule="evenodd" 
  d="M16 4.71718C9.76865 4.71718 4.71715 9.76868 4.71715 16C4.71715 22.2314 9.76865 27.2829 16 27.2829C22.2313 27.2829 27.2828 22.2314 27.2828 16C27.2828 9.76868 22.2313 4.71718 16 4.71718ZM2.66666 16C2.66666 8.63622 8.63619 2.66669 16 2.66669C23.3638 2.66669 29.3333 8.63622 29.3333 16C29.3333 23.3638 23.3638 29.3334 16 29.3334C8.63619 29.3334 2.66666 23.3638 2.66666 16Z" 
  fill="#5DDE98"
/>
<path 
  fill-rule="evenodd" 
  clip-rule="evenodd" 
  d="M21.4923 11.997C21.8927 12.3974 21.8927 13.0465 21.4923 13.4469L14.9725 19.9668C14.9316 20.0326 14.8826 20.0949 14.8254 20.1521C14.425 20.5525 13.7759 20.5525 13.3755 20.1521L10.412 17.1886C10.0116 16.7882 10.0116 16.139 10.412 15.7387C10.8124 15.3383 11.4615 15.3383 11.8619 15.7387L14.0813 17.9581L20.0424 11.997C20.4428 11.5966 21.0919 11.5966 21.4923 11.997Z" 
  fill="#5DDE98"
/>
</svg>

