<svg width="20" height="20" viewBox="0 0 20 20" fill="none" xmlns="http://www.w3.org/2000/svg">
<path fill-rule="evenodd" clip-rule="evenodd" d="M5.00002 13.1305C3.51186 13.1305 2.29169 14.3507 2.29169 15.8388C2.29169 16.184 2.01186 16.4638 1.66669 16.4638C1.32151 16.4638 1.04169 16.184 1.04169 15.8388C1.04169 13.6603 2.82151 11.8805 5.00002 11.8805H8.33335C10.5119 11.8805 12.2917 13.6603 12.2917 15.8388C12.2917 16.184 12.0119 16.4638 11.6667 16.4638C11.3215 16.4638 11.0417 16.184 11.0417 15.8388C11.0417 14.3507 9.82151 13.1305 8.33335 13.1305H5.00002Z" fill="currentColor"/>
<path fill-rule="evenodd" clip-rule="evenodd" d="M8.31622 5.45559C7.35717 4.57322 5.84777 4.56224 5.04133 5.43072C4.20242 6.33416 4.24156 7.71246 5.12466 8.66349C5.9332 9.53423 7.36575 9.52125 8.32471 8.63078C9.21304 7.80591 9.23994 6.38776 8.31622 5.45559ZM9.17229 4.54468C7.7972 3.2707 5.48218 3.11894 4.12533 4.58016C2.79757 6.01006 2.9251 8.13176 4.20867 9.51406C5.56679 10.9767 7.80091 10.823 9.17528 9.54677C10.6167 8.20831 10.5933 5.96784 9.19479 4.56635C9.19116 4.56269 9.18748 4.55905 9.18375 4.55545C9.17996 4.5518 9.17614 4.54821 9.17229 4.54468Z" fill="currentColor"/>
<path fill-rule="evenodd" clip-rule="evenodd" d="M12.7084 11.6721C12.7084 11.3269 12.9882 11.0471 13.3334 11.0471H15.8334C17.5952 11.0471 18.9584 12.4103 18.9584 14.1721C18.9584 14.5173 18.6786 14.7971 18.3334 14.7971C17.9882 14.7971 17.7084 14.5173 17.7084 14.1721C17.7084 13.1006 16.9049 12.2971 15.8334 12.2971H13.3334C12.9882 12.2971 12.7084 12.0173 12.7084 11.6721Z" fill="currentColor"/>
<path fill-rule="evenodd" clip-rule="evenodd" d="M15.653 6.04242C15.0435 5.50564 14.0992 5.54009 13.6086 6.03069C13.6009 6.03844 13.5929 6.04598 13.5848 6.05331C13.0689 6.51759 13.0532 7.44509 13.6312 8.08731C14.0955 8.60318 15.023 8.61886 15.6652 8.04086C16.2055 7.55459 16.2438 6.64546 15.653 6.04242ZM16.4971 5.12033C15.4432 4.17588 13.7427 4.14231 12.7364 5.1352C11.5991 6.17219 11.7834 7.9027 12.7021 8.92352C13.7378 10.0743 15.477 9.89197 16.5014 8.96997C17.6229 7.96069 17.5891 6.21502 16.5293 5.15088C16.5242 5.14563 16.5189 5.14045 16.5135 5.13534C16.5081 5.13022 16.5027 5.12522 16.4971 5.12033Z" fill="currentColor"/>
</svg>
